<svg width="145" height="21" viewBox="0 0 145 21" fill="none" xmlns="http://www.w3.org/2000/svg">
<path d="M0 9.29767C0 12.7918 2.28927 15.0409 5.50229 15.0409C8.27352 15.0409 10.1411 13.4746 10.7435 11.105H7.71124C7.36986 12.1091 6.64693 12.6312 5.48221 12.6312C3.91587 12.6312 2.87163 11.4665 2.87163 9.29767C2.87163 7.12888 3.91587 5.94408 5.48221 5.94408C6.64693 5.94408 7.38994 6.54652 7.71124 7.49035H10.7435C10.1411 5.00026 8.27352 3.5544 5.50229 3.5544C2.28927 3.5544 0 5.80351 0 9.29767Z" fill="#2702FF"/>
<path d="M15.6145 9.31775C15.6145 7.16905 16.6186 6.52644 18.2853 6.52644H19.0283V3.57448C17.4821 3.57448 16.3174 4.31749 15.6145 5.46213V3.73513H12.8031V14.8602H15.6145V9.31775Z" fill="#2702FF"/>
<path d="M25.6612 11.5066L22.7895 3.73513H19.6367L24.0948 14.5791L21.685 20.1215H24.6772L31.5651 3.73513H28.5729L25.6612 11.5066Z" fill="#2702FF"/>
<path d="M35.892 5.34164V3.73513H33.0806V20.1617H35.892V13.2738C36.5747 14.1774 37.8198 15.0409 39.5669 15.0409C42.4184 15.0409 44.6474 12.7316 44.6474 9.25751C44.6474 5.78343 42.4184 3.5544 39.5669 3.5544C37.8399 3.5544 36.5547 4.39782 35.892 5.34164ZM41.7758 9.25751C41.7758 11.366 40.35 12.5709 38.8239 12.5709C37.3178 12.5709 35.892 11.4062 35.892 9.29767C35.892 7.18913 37.3178 6.02441 38.8239 6.02441C40.35 6.02441 41.7758 7.14896 41.7758 9.25751Z" fill="#2702FF"/>
<path d="M47.1322 11.4062C47.1322 13.9565 48.558 14.8602 50.6866 14.8602H52.4538V12.4906H51.1485C50.2649 12.4906 49.9637 12.1693 49.9637 11.4263V6.04449H52.4538V3.73513H49.9637V0.983986H47.1322V3.73513H45.8068V6.04449H47.1322V11.4062Z" fill="#2702FF"/>
<path d="M65.2194 9.29767C65.2194 5.78343 62.7092 3.5544 59.4962 3.5544C56.2832 3.5544 53.773 5.78343 53.773 9.29767C53.773 12.7918 56.2029 15.0409 59.4159 15.0409C62.649 15.0409 65.2194 12.7918 65.2194 9.29767ZM56.6246 9.29767C56.6246 7.06864 57.97 6.00433 59.456 6.00433C60.9421 6.00433 62.3277 7.06864 62.3277 9.29767C62.3277 11.5066 60.9019 12.591 59.4159 12.591C57.9098 12.591 56.6246 11.5066 56.6246 9.29767Z" fill="#2702FF"/>
<path d="M87.6297 14.8602H90.4411V8.33377C90.4411 5.26132 88.5535 3.57448 85.8826 3.57448C84.2561 3.57448 82.7901 4.43798 82.0672 5.70311C81.3041 4.31749 79.8783 3.57448 78.1513 3.57448C76.7657 3.57448 75.5809 4.15684 74.8781 5.08058V3.73513H72.0667V14.8602H74.8781V8.71531C74.8781 6.94815 75.862 6.02441 77.3882 6.02441C78.8743 6.02441 79.8582 6.94815 79.8582 8.71531V14.8602H82.6696V8.71531C82.6696 6.94815 83.6536 6.02441 85.1597 6.02441C86.6457 6.02441 87.6297 6.94815 87.6297 8.71531V14.8602Z" fill="#2702FF"/>
<path d="M92.386 9.25751C92.386 12.7316 94.6351 15.0409 97.4465 15.0409C99.2137 15.0409 100.479 14.1975 101.141 13.2336V14.8602H103.973V3.73513H101.141V5.32156C100.479 4.39782 99.2538 3.5544 97.4666 3.5544C94.6351 3.5544 92.386 5.78343 92.386 9.25751ZM101.141 9.29767C101.141 11.4062 99.7358 12.5709 98.1895 12.5709C96.6834 12.5709 95.2576 11.366 95.2576 9.25751C95.2576 7.14896 96.6834 6.02441 98.1895 6.02441C99.7358 6.02441 101.141 7.18913 101.141 9.29767Z" fill="#2702FF"/>
<path d="M109.53 9.31775C109.53 7.16905 110.534 6.52644 112.201 6.52644H112.944V3.57448C111.398 3.57448 110.233 4.31749 109.53 5.46213V3.73513H106.719V14.8602H109.53V9.31775Z" fill="#2702FF"/>
<path d="M114.838 14.8602H117.649V10.121L121.424 14.8602H125.079L120.139 9.31775L125.039 3.73513H121.384L117.649 8.45425V0H114.838V14.8602Z" fill="#2702FF"/>
<path d="M131.344 5.86376C132.79 5.86376 133.955 6.7875 133.995 8.25344H128.714C128.934 6.72726 129.999 5.86376 131.344 5.86376ZM136.626 11.366H133.593C133.232 12.1091 132.569 12.7115 131.364 12.7115C129.959 12.7115 128.834 11.7878 128.693 10.1411H136.826C136.887 9.77962 136.907 9.41816 136.907 9.05669C136.907 5.74327 134.638 3.5544 131.424 3.5544C128.131 3.5544 125.842 5.78343 125.842 9.29767C125.842 12.7918 128.191 15.0409 131.424 15.0409C134.176 15.0409 136.023 13.4143 136.626 11.366Z" fill="#2702FF"/>
<path d="M139.401 11.4062C139.401 13.9565 140.826 14.8602 142.955 14.8602H144.722V12.4906H143.417C142.533 12.4906 142.232 12.1693 142.232 11.4263V6.04449H144.722V3.73513H142.232V0.983986H139.401V3.73513H138.075V6.04449H139.401V11.4062Z" fill="#2702FF"/>
</svg>
